<svg width="189" height="42" viewBox="0 0 189 42" fill="none" xmlns="http://www.w3.org/2000/svg">
<path d="M167.421 0H21.5872C10.0813 0 0.753906 9.3274 0.753906 20.8333C0.753906 32.3393 10.0813 41.6667 21.5872 41.6667H167.421C178.926 41.6667 188.254 32.3393 188.254 20.8333C188.254 9.3274 178.926 0 167.421 0Z" fill="#02B14F"/>
<path d="M41.4126 17.6841C40.1085 17.6841 39.2834 18.3508 39.2834 19.255C39.2793 20.2717 40.3834 20.6592 41.2126 20.8717L42.2501 21.1425C43.596 21.4758 45.3043 22.2133 45.3043 24.1258C45.3043 25.9258 43.8709 27.2341 41.3751 27.2341C38.8793 27.2341 37.5085 26.0466 37.4043 24.1258H39.0085C39.1001 25.28 40.1293 25.83 41.3626 25.83C42.7251 25.83 43.7168 25.1466 43.7168 24.1091C43.7168 23.1674 42.8418 22.7925 41.7043 22.4925L40.4501 22.1508C38.7459 21.6883 37.6876 20.8258 37.6876 19.3466C37.6876 17.5175 39.3209 16.3008 41.4501 16.3008C43.5793 16.3008 45.1085 17.5341 45.1543 19.2341H43.6084C43.4959 18.255 42.6293 17.6841 41.4126 17.6841Z" fill="white"/>
<path d="M48.6281 27.0578H47.0781V16.4453H48.6073V20.3953H48.7073C49.0823 19.537 49.8281 18.9954 51.0656 18.9954C52.7031 18.9954 53.7906 20.012 53.7906 21.9953V27.0578H52.2406V22.1828C52.2406 21.0162 51.6031 20.337 50.5364 20.337C49.4698 20.337 48.6281 21.062 48.6281 22.3329V27.0578Z" fill="white"/>
<path d="M55.4826 24.8091C55.4826 23.0008 57.0285 22.605 58.5327 22.43C59.9618 22.2633 60.5451 22.2758 60.5451 21.7091V21.6716C60.5451 20.7716 60.0326 20.2466 59.0326 20.2466C58.0326 20.2466 57.4118 20.7924 57.1827 21.3549L55.7243 21.0216C56.241 19.5716 57.5702 18.9883 59.0077 18.9883C60.2702 18.9883 62.0951 19.4507 62.0951 21.7674V27.0507H60.5827V25.9633H60.5202C60.2243 26.5591 59.4827 27.2258 58.166 27.2258C56.6535 27.2258 55.4785 26.3674 55.4785 24.8008L55.4826 24.8091ZM60.5493 24.1883V23.1633C60.3243 23.3841 59.1327 23.5215 58.6327 23.5882C57.7368 23.709 56.9993 24.005 56.9993 24.83C56.9993 25.5966 57.6326 25.9924 58.5076 25.9924C59.7993 25.9924 60.5493 25.1341 60.5493 24.1883Z" fill="white"/>
<path d="M64.1582 19.0974H65.654V20.3598H65.7374C66.0291 19.5057 66.8249 18.9766 67.7582 18.9766C67.954 18.9766 68.2624 18.9932 68.4165 19.014V20.4974C68.2915 20.4599 67.929 20.4057 67.6082 20.4057C66.5082 20.4057 65.7082 21.1557 65.7082 22.1974V27.0599H64.1582V19.1016V19.0974Z" fill="white"/>
<path d="M69.1133 23.1294C69.1133 20.6836 70.5758 18.9961 72.7924 18.9961C74.5966 18.9961 76.3174 20.121 76.3174 22.996V23.5461H70.6591C70.7008 25.0794 71.5924 25.9419 72.9174 25.9419C73.7966 25.9419 74.4716 25.5586 74.7508 24.8086L76.2174 25.071C75.8633 26.3669 74.6383 27.2211 72.9008 27.2211C70.5549 27.2211 69.1133 25.6044 69.1133 23.1336V23.1294ZM74.7966 22.3835C74.7925 21.1669 74.0049 20.2752 72.8008 20.2752C71.5966 20.2752 70.7216 21.2544 70.6591 22.3835H74.7924H74.7966Z" fill="white"/>
<path d="M85.6173 20.3414H83.984V24.7206C83.984 25.6164 84.434 25.783 84.9382 25.783C85.1882 25.783 85.3798 25.7372 85.484 25.7164L85.7632 26.9956C85.5798 27.0623 85.2506 27.158 84.759 27.1622C83.5381 27.1872 82.434 26.4873 82.4382 25.0414V20.3414H81.2715V19.0998H82.4382V17.1914H83.9882V19.0998H85.6215V20.3414H85.6173Z" fill="white"/>
<path d="M89.0383 27.0578H87.4883V16.4453H89.0175V20.3953H89.1175C89.4925 19.537 90.2383 18.9954 91.4758 18.9954C93.1133 18.9954 94.2008 20.012 94.2008 21.9953V27.0578H92.6508V22.1828C92.6508 21.0162 92.0133 20.337 90.9466 20.337C89.88 20.337 89.0383 21.062 89.0383 22.3329V27.0578Z" fill="white"/>
<path d="M96.0664 16.9448C96.0664 16.4365 96.5081 16.0156 97.0456 16.0156C97.5831 16.0156 98.0248 16.4365 98.0248 16.9448C98.0248 17.4531 97.5789 17.8656 97.0456 17.8656C96.5122 17.8656 96.0664 17.449 96.0664 16.9448ZM96.2622 19.0948H97.8123V27.0531H96.2622V19.0948Z" fill="white"/>
<path d="M104.453 21.2919C104.27 20.7586 103.829 20.2252 102.862 20.2252C101.983 20.2252 101.316 20.6586 101.324 21.2711C101.32 21.8086 101.699 22.1044 102.574 22.3127L103.837 22.6044C105.299 22.9419 106.012 23.6377 106.012 24.7585C106.012 26.2002 104.679 27.2211 102.758 27.2211C100.97 27.2211 99.7993 26.4294 99.541 25.0169L101.037 24.7877C101.224 25.5711 101.82 25.9711 102.745 25.9711C103.762 25.9711 104.42 25.4877 104.42 24.871C104.42 24.3752 104.062 24.0336 103.295 23.8627L101.949 23.5669C100.458 23.2336 99.7743 22.4836 99.7743 21.3544C99.7743 19.9461 101.049 18.9961 102.845 18.9961C104.641 18.9961 105.533 19.8044 105.858 21.0419L104.453 21.2919Z" fill="white"/>
<path d="M111.213 23.1294C111.213 20.6836 112.675 18.9961 114.892 18.9961C116.696 18.9961 118.417 20.121 118.417 22.996V23.5461H112.759C112.8 25.0794 113.692 25.9419 115.017 25.9419C115.896 25.9419 116.571 25.5586 116.85 24.8086L118.317 25.071C117.963 26.3669 116.738 27.2211 115 27.2211C112.655 27.2211 111.213 25.6044 111.213 23.1336V23.1294ZM116.896 22.3835C116.892 21.1669 116.105 20.2752 114.9 20.2752C113.696 20.2752 112.821 21.2544 112.759 22.3835H116.892H116.896Z" fill="white"/>
<path d="M123.926 20.3409H122.209V27.0575H120.655V20.3409H119.426V19.0992H120.655V18.1783C120.655 16.6867 121.759 15.9492 123.017 15.9492C123.642 15.9492 124.097 16.0784 124.313 16.1617L123.951 17.4159C123.805 17.3701 123.576 17.295 123.255 17.295C122.497 17.295 122.209 17.6783 122.209 18.3825V19.0992H123.926V20.3409Z" fill="white"/>
<path d="M129.305 20.3409H127.588V27.0575H126.034V20.3409H124.805V19.0992H126.034V18.1783C126.034 16.6867 127.138 15.9492 128.396 15.9492C129.021 15.9492 129.476 16.0784 129.692 16.1617L129.33 17.4159C129.184 17.3701 128.955 17.295 128.634 17.295C127.876 17.295 127.588 17.6783 127.588 18.3825V19.0992H129.305V20.3409Z" fill="white"/>
<path d="M130.225 23.113C130.225 20.638 131.691 18.9922 133.933 18.9922C136.175 18.9922 137.641 20.6338 137.641 23.113C137.641 25.5921 136.175 27.2172 133.933 27.2172C131.691 27.2172 130.225 25.5755 130.225 23.113ZM136.079 23.1088C136.079 21.5838 135.395 20.2921 133.937 20.2921C132.479 20.2921 131.787 21.588 131.787 23.1088C131.787 24.6296 132.47 25.9171 133.937 25.9171C135.404 25.9171 136.079 24.638 136.079 23.1088Z" fill="white"/>
<path d="M139.367 19.0974H140.863V20.3598H140.946C141.238 19.5057 142.034 18.9766 142.967 18.9766C143.163 18.9766 143.471 18.9932 143.626 19.014V20.4974C143.501 20.4599 143.138 20.4057 142.817 20.4057C141.717 20.4057 140.917 21.1557 140.917 22.1974V27.0599H139.367V19.1016V19.0974Z" fill="white"/>
<path d="M149.151 20.3414H147.517V24.7206C147.517 25.6164 147.967 25.783 148.471 25.783C148.721 25.783 148.913 25.7372 149.017 25.7164L149.296 26.9956C149.113 27.0623 148.784 27.158 148.292 27.1622C147.071 27.1872 145.967 26.4873 145.971 25.0414V20.3414H144.805V19.0998H145.971V17.1914H147.521V19.0998H149.155V20.3414H149.151Z" fill="white"/>
</svg>
