<svg width="189" height="43" viewBox="0 0 189 43" fill="none" xmlns="http://www.w3.org/2000/svg">
<path d="M167.421 0.414062H21.5872C10.0813 0.414062 0.753906 9.74146 0.753906 21.2474C0.753906 32.7533 10.0813 42.0807 21.5872 42.0807H167.421C178.926 42.0807 188.254 32.7533 188.254 21.2474C188.254 9.74146 178.926 0.414062 167.421 0.414062Z" fill="#02B14F"/>
<path d="M41.4126 18.0982C40.1085 18.0982 39.2834 18.7649 39.2834 19.669C39.2793 20.6857 40.3834 21.0733 41.2126 21.2858L42.2501 21.5566C43.596 21.8899 45.3043 22.6274 45.3043 24.5399C45.3043 26.3399 43.8709 27.6482 41.3751 27.6482C38.8793 27.6482 37.5085 26.4607 37.4043 24.5399H39.0085C39.1001 25.694 40.1293 26.2441 41.3626 26.2441C42.7251 26.2441 43.7168 25.5607 43.7168 24.5232C43.7168 23.5815 42.8418 23.2066 41.7043 22.9066L40.4501 22.5649C38.7459 22.1024 37.6876 21.2399 37.6876 19.7607C37.6876 17.9315 39.3209 16.7148 41.4501 16.7148C43.5793 16.7148 45.1085 17.9482 45.1543 19.6482H43.6084C43.4959 18.669 42.6293 18.0982 41.4126 18.0982Z" fill="white"/>
<path d="M48.6281 27.4719H47.0781V16.8594H48.6073V20.8094H48.7073C49.0823 19.951 49.8281 19.4094 51.0656 19.4094C52.7031 19.4094 53.7906 20.4261 53.7906 22.4094V27.4719H52.2406V22.5969C52.2406 21.4302 51.6031 20.7511 50.5364 20.7511C49.4698 20.7511 48.6281 21.4761 48.6281 22.7469V27.4719Z" fill="white"/>
<path d="M55.4826 25.2232C55.4826 23.4148 57.0285 23.019 58.5327 22.844C59.9618 22.6773 60.5451 22.6899 60.5451 22.1232V22.0857C60.5451 21.1857 60.0326 20.6607 59.0326 20.6607C58.0326 20.6607 57.4118 21.2065 57.1827 21.769L55.7243 21.4356C56.241 19.9856 57.5702 19.4023 59.0077 19.4023C60.2702 19.4023 62.0951 19.8648 62.0951 22.1815V27.4648H60.5827V26.3773H60.5202C60.2243 26.9732 59.4827 27.6399 58.166 27.6399C56.6535 27.6399 55.4785 26.7815 55.4785 25.2148L55.4826 25.2232ZM60.5493 24.6023V23.5774C60.3243 23.7982 59.1327 23.9356 58.6327 24.0023C57.7368 24.1231 56.9993 24.419 56.9993 25.244C56.9993 26.0107 57.6326 26.4064 58.5076 26.4064C59.7993 26.4064 60.5493 25.5482 60.5493 24.6023Z" fill="white"/>
<path d="M64.1582 19.5115H65.654V20.7739H65.7374C66.0291 19.9197 66.8249 19.3906 67.7582 19.3906C67.954 19.3906 68.2624 19.4072 68.4165 19.4281V20.9114C68.2915 20.8739 67.929 20.8198 67.6082 20.8198C66.5082 20.8198 65.7082 21.5698 65.7082 22.6115V27.4739H64.1582V19.5156V19.5115Z" fill="white"/>
<path d="M69.1133 23.5435C69.1133 21.0976 70.5758 19.4102 72.7924 19.4102C74.5966 19.4102 76.3174 20.5351 76.3174 23.4101V23.9601H70.6591C70.7008 25.4935 71.5924 26.356 72.9174 26.356C73.7966 26.356 74.4716 25.9726 74.7508 25.2226L76.2174 25.4851C75.8633 26.7809 74.6383 27.6352 72.9008 27.6352C70.5549 27.6352 69.1133 26.0185 69.1133 23.5476V23.5435ZM74.7966 22.7976C74.7925 21.5809 74.0049 20.6892 72.8008 20.6892C71.5966 20.6892 70.7216 21.6684 70.6591 22.7976H74.7924H74.7966Z" fill="white"/>
<path d="M85.6173 20.7555H83.984V25.1347C83.984 26.0305 84.434 26.1971 84.9382 26.1971C85.1882 26.1971 85.3798 26.1513 85.484 26.1305L85.7632 27.4096C85.5798 27.4763 85.2506 27.5721 84.759 27.5763C83.5381 27.6013 82.434 26.9013 82.4382 25.4555V20.7555H81.2715V19.5138H82.4382V17.6055H83.9882V19.5138H85.6215V20.7555H85.6173Z" fill="white"/>
<path d="M89.0383 27.4719H87.4883V16.8594H89.0175V20.8094H89.1175C89.4925 19.951 90.2383 19.4094 91.4758 19.4094C93.1133 19.4094 94.2008 20.4261 94.2008 22.4094V27.4719H92.6508V22.5969C92.6508 21.4302 92.0133 20.7511 90.9466 20.7511C89.88 20.7511 89.0383 21.4761 89.0383 22.7469V27.4719Z" fill="white"/>
<path d="M96.0664 17.3588C96.0664 16.8505 96.5081 16.4297 97.0456 16.4297C97.5831 16.4297 98.0248 16.8505 98.0248 17.3588C98.0248 17.8672 97.5789 18.2797 97.0456 18.2797C96.5122 18.2797 96.0664 17.863 96.0664 17.3588ZM96.2622 19.5089H97.8123V27.4672H96.2622V19.5089Z" fill="white"/>
<path d="M104.453 21.706C104.27 21.1727 103.829 20.6393 102.862 20.6393C101.983 20.6393 101.316 21.0726 101.324 21.6851C101.32 22.2226 101.699 22.5185 102.574 22.7268L103.837 23.0185C105.299 23.356 106.012 24.0518 106.012 25.1726C106.012 26.6143 104.679 27.6352 102.758 27.6352C100.97 27.6352 99.7993 26.8435 99.541 25.431L101.037 25.2018C101.224 25.9851 101.82 26.3852 102.745 26.3852C103.762 26.3852 104.42 25.9018 104.42 25.2851C104.42 24.7893 104.062 24.4476 103.295 24.2768L101.949 23.981C100.458 23.6476 99.7743 22.8976 99.7743 21.7685C99.7743 20.3601 101.049 19.4102 102.845 19.4102C104.641 19.4102 105.533 20.2185 105.858 21.456L104.453 21.706Z" fill="white"/>
<path d="M111.213 23.5435C111.213 21.0976 112.675 19.4102 114.892 19.4102C116.696 19.4102 118.417 20.5351 118.417 23.4101V23.9601H112.759C112.8 25.4935 113.692 26.356 115.017 26.356C115.896 26.356 116.571 25.9726 116.85 25.2226L118.317 25.4851C117.963 26.7809 116.738 27.6352 115 27.6352C112.655 27.6352 111.213 26.0185 111.213 23.5476V23.5435ZM116.896 22.7976C116.892 21.5809 116.105 20.6892 114.9 20.6892C113.696 20.6892 112.821 21.6684 112.759 22.7976H116.892H116.896Z" fill="white"/>
<path d="M123.926 20.755H122.209V27.4716H120.655V20.755H119.426V19.5133H120.655V18.5924C120.655 17.1007 121.759 16.3633 123.017 16.3633C123.642 16.3633 124.097 16.4925 124.313 16.5758L123.951 17.83C123.805 17.7841 123.576 17.7091 123.255 17.7091C122.497 17.7091 122.209 18.0924 122.209 18.7965V19.5133H123.926V20.755Z" fill="white"/>
<path d="M129.305 20.755H127.588V27.4716H126.034V20.755H124.805V19.5133H126.034V18.5924C126.034 17.1007 127.138 16.3633 128.396 16.3633C129.021 16.3633 129.476 16.4925 129.692 16.5758L129.33 17.83C129.184 17.7841 128.955 17.7091 128.634 17.7091C127.876 17.7091 127.588 18.0924 127.588 18.7965V19.5133H129.305V20.755Z" fill="white"/>
<path d="M130.225 23.527C130.225 21.052 131.691 19.4062 133.933 19.4062C136.175 19.4062 137.641 21.0479 137.641 23.527C137.641 26.0062 136.175 27.6312 133.933 27.6312C131.691 27.6312 130.225 25.9895 130.225 23.527ZM136.079 23.5229C136.079 21.9979 135.395 20.7062 133.937 20.7062C132.479 20.7062 131.787 22.002 131.787 23.5229C131.787 25.0437 132.47 26.3312 133.937 26.3312C135.404 26.3312 136.079 25.052 136.079 23.5229Z" fill="white"/>
<path d="M139.367 19.5115H140.863V20.7739H140.946C141.238 19.9197 142.034 19.3906 142.967 19.3906C143.163 19.3906 143.471 19.4072 143.626 19.4281V20.9114C143.501 20.8739 143.138 20.8198 142.817 20.8198C141.717 20.8198 140.917 21.5698 140.917 22.6115V27.4739H139.367V19.5156V19.5115Z" fill="white"/>
<path d="M149.151 20.7555H147.517V25.1347C147.517 26.0305 147.967 26.1971 148.471 26.1971C148.721 26.1971 148.913 26.1513 149.017 26.1305L149.296 27.4096C149.113 27.4763 148.784 27.5721 148.292 27.5763C147.071 27.6013 145.967 26.9013 145.971 25.4555V20.7555H144.805V19.5138H145.971V17.6055H147.521V19.5138H149.155V20.7555H149.151Z" fill="white"/>
</svg>
