<svg width="225" height="59" viewBox="0 0 225 59" fill="none" xmlns="http://www.w3.org/2000/svg">
<path d="M195.544 0.136719H29.3811C13.3626 0.136719 0.376953 13.1224 0.376953 29.1409C0.376953 45.1595 13.3626 58.1451 29.3811 58.1451H195.544C211.562 58.1451 224.548 45.1595 224.548 29.1409C224.548 13.1224 211.562 0.136719 195.544 0.136719Z" fill="#9ED743"/>
<path d="M52.0275 25.6734C49.2691 25.6734 47.2441 23.611 47.2441 20.2235C47.2441 16.836 49.2691 14.7734 52.0275 14.7734C54.7858 14.7734 56.8066 16.8318 56.8066 20.2235C56.8066 23.6151 54.7733 25.6734 52.0275 25.6734ZM52.0275 16.2318C50.1983 16.2318 48.8358 17.636 48.8358 20.2235C48.8358 22.811 50.1983 24.2151 52.0275 24.2151C53.8566 24.2151 55.2191 22.811 55.2191 20.2235C55.2191 17.636 53.8525 16.2318 52.0275 16.2318Z" fill="#21523B"/>
<path d="M58.6641 17.5662H60.1599V18.8287H60.2432C60.5349 17.9745 61.3307 17.4453 62.2641 17.4453C62.4599 17.4453 62.7682 17.462 62.9224 17.4828V18.9662C62.7974 18.9287 62.4349 18.8746 62.114 18.8746C61.014 18.8746 60.2141 19.6245 60.2141 20.6661V25.5287H58.6641V17.5703V17.5662Z" fill="#21523B"/>
<path d="M72.6898 19.7607C72.5065 19.2273 72.0648 18.694 71.0982 18.694C70.219 18.694 69.5524 19.1273 69.5607 19.7398C69.5565 20.2773 69.9357 20.5732 70.8107 20.7815L72.0732 21.0731C73.5357 21.4106 74.2482 22.1065 74.2482 23.2274C74.2482 24.669 72.9148 25.6898 70.994 25.6898C69.2065 25.6898 68.0357 24.8982 67.7773 23.4857L69.2732 23.2565C69.4607 24.0398 70.0565 24.4398 70.9815 24.4398C71.9982 24.4398 72.6565 23.9566 72.6565 23.3399C72.6565 22.8441 72.2982 22.5023 71.5315 22.3315L70.1857 22.0357C68.694 21.7023 68.0107 20.9523 68.0107 19.8231C68.0107 18.4148 69.2856 17.4648 71.0815 17.4648C72.8773 17.4648 73.769 18.2731 74.094 19.5106L72.6898 19.7607Z" fill="#21523B"/>
<path d="M77.4933 25.5266H75.9434V14.9141H77.4725V18.8641H77.5725C77.9475 18.0057 78.6933 17.464 79.9308 17.464C81.5683 17.464 82.6559 18.4807 82.6559 20.464V25.5266H81.1059V20.6515C81.1059 19.4848 80.4684 18.8057 79.4017 18.8057C78.335 18.8057 77.4933 19.5307 77.4933 20.8015V25.5266Z" fill="#21523B"/>
<path d="M84.3518 23.2779C84.3518 21.4695 85.8976 21.0737 87.4018 20.8987C88.831 20.732 89.4143 20.7445 89.4143 20.1779V20.1403C89.4143 19.2403 88.9018 18.7154 87.9018 18.7154C86.9018 18.7154 86.281 19.2612 86.0518 19.8237L84.5935 19.4904C85.1101 18.0404 86.4393 17.457 87.8768 17.457C89.1393 17.457 90.9643 17.9195 90.9643 20.2362V25.5196H89.4518V24.432H89.3893C89.0935 25.0279 88.3518 25.6945 87.0351 25.6945C85.5226 25.6945 84.3477 24.8362 84.3477 23.2695L84.3518 23.2779ZM89.4185 22.657V21.632C89.1935 21.8529 88.0018 21.9904 87.5018 22.057C86.606 22.1779 85.8684 22.4737 85.8684 23.2987C85.8684 24.0654 86.5018 24.4612 87.3768 24.4612C88.6684 24.4612 89.4185 23.6029 89.4185 22.657Z" fill="#21523B"/>
<path d="M93.0234 17.5662H94.5193V18.8287H94.6026C94.8943 17.9745 95.6901 17.4453 96.6234 17.4453C96.8193 17.4453 97.1276 17.462 97.2818 17.4828V18.9662C97.1568 18.9287 96.7943 18.8746 96.4734 18.8746C95.3734 18.8746 94.5734 19.6245 94.5734 20.6661V25.5287H93.0234V17.5703V17.5662Z" fill="#21523B"/>
<path d="M97.9805 21.5981C97.9805 19.1523 99.443 17.4648 101.66 17.4648C103.464 17.4648 105.185 18.5899 105.185 21.4649V22.0148H99.5263C99.568 23.5481 100.46 24.4106 101.785 24.4106C102.664 24.4106 103.339 24.0273 103.618 23.2773L105.085 23.5399C104.73 24.8357 103.505 25.6898 101.768 25.6898C99.4221 25.6898 97.9805 24.0731 97.9805 21.6023V21.5981ZM103.664 20.8524C103.66 19.6357 102.872 18.744 101.668 18.744C100.464 18.744 99.5888 19.7232 99.5263 20.8524H103.66H103.664Z" fill="#21523B"/>
<path d="M110.57 15.4174C110.57 14.9091 111.012 14.4883 111.549 14.4883C112.087 14.4883 112.529 14.9091 112.529 15.4174C112.529 15.9258 112.083 16.3383 111.549 16.3383C111.016 16.3383 110.57 15.9216 110.57 15.4174ZM110.766 17.5674H112.316V25.5258H110.766V17.5674Z" fill="#21523B"/>
<path d="M118.109 18.8102H116.476V23.1894C116.476 24.0852 116.926 24.2519 117.43 24.2519C117.68 24.2519 117.872 24.2061 117.976 24.1852L118.255 25.4643C118.072 25.531 117.743 25.6269 117.251 25.6311C116.03 25.6561 114.926 24.956 114.93 23.5102V18.8102H113.764V17.5685H114.93V15.6602H116.48V17.5685H118.114V18.8102H118.109Z" fill="#21523B"/>
<path d="M127.469 18.8097H125.752V25.5264H124.198V18.8097H122.969V17.568H124.198V16.6472C124.198 15.1555 125.302 14.418 126.56 14.418C127.185 14.418 127.64 14.5471 127.856 14.6305L127.494 15.8846C127.348 15.8388 127.119 15.7638 126.798 15.7638C126.04 15.7638 125.752 16.1472 125.752 16.8513V17.568H127.469V18.8097Z" fill="#21523B"/>
<path d="M128.391 21.5857C128.391 19.1107 129.857 17.4648 132.099 17.4648C134.341 17.4648 135.807 19.1066 135.807 21.5857C135.807 24.0649 134.341 25.6898 132.099 25.6898C129.857 25.6898 128.391 24.0482 128.391 21.5857ZM134.245 21.5816C134.245 20.0566 133.561 18.7649 132.103 18.7649C130.645 18.7649 129.953 20.0607 129.953 21.5816C129.953 23.1024 130.636 24.3899 132.103 24.3899C133.57 24.3899 134.245 23.1107 134.245 21.5816Z" fill="#21523B"/>
<path d="M137.527 17.5662H139.023V18.8287H139.106C139.398 17.9745 140.194 17.4453 141.127 17.4453C141.323 17.4453 141.631 17.462 141.786 17.4828V18.9662C141.661 18.9287 141.298 18.8746 140.977 18.8746C139.877 18.8746 139.077 19.6245 139.077 20.6661V25.5287H137.527V17.5703V17.5662Z" fill="#21523B"/>
<path d="M142.641 17.5664H144.241L145.799 23.4123H145.878L147.445 17.5664H149.045L150.599 23.3872H150.678L152.228 17.5664H153.828L151.491 25.5248H149.911L148.295 19.7789H148.174L146.557 25.5248H144.982L142.641 17.5664Z" fill="#21523B"/>
<path d="M154.91 23.2779C154.91 21.4695 156.456 21.0737 157.96 20.8987C159.39 20.732 159.973 20.7445 159.973 20.1779V20.1403C159.973 19.2403 159.46 18.7154 158.46 18.7154C157.46 18.7154 156.84 19.2612 156.61 19.8237L155.152 19.4904C155.669 18.0404 156.998 17.457 158.435 17.457C159.698 17.457 161.523 17.9195 161.523 20.2362V25.5196H160.01V24.432H159.948C159.652 25.0279 158.91 25.6945 157.594 25.6945C156.081 25.6945 154.906 24.8362 154.906 23.2695L154.91 23.2779ZM159.977 22.657V21.632C159.752 21.8529 158.56 21.9904 158.06 22.057C157.165 22.1779 156.427 22.4737 156.427 23.2987C156.427 24.0654 157.06 24.4612 157.935 24.4612C159.227 24.4612 159.977 23.6029 159.977 22.657Z" fill="#21523B"/>
<path d="M163.586 17.5662H165.082V18.8287H165.165C165.457 17.9745 166.253 17.4453 167.186 17.4453C167.382 17.4453 167.69 17.462 167.844 17.4828V18.9662C167.719 18.9287 167.357 18.8746 167.036 18.8746C165.936 18.8746 165.136 19.6245 165.136 20.6661V25.5287H163.586V17.5703V17.5662Z" fill="#21523B"/>
<path d="M168.553 21.5638C168.553 18.9846 169.969 17.4637 171.89 17.4637C173.374 17.4637 173.903 18.3638 174.182 18.8596H174.274V14.918H175.824V25.5305H174.311V24.293H174.182C173.903 24.8013 173.332 25.6887 171.882 25.6887C169.949 25.6887 168.557 24.143 168.557 21.568L168.553 21.5638ZM174.299 21.5471C174.299 19.8846 173.574 18.7804 172.219 18.7804C170.865 18.7804 170.115 19.9679 170.115 21.5471C170.115 23.1263 170.836 24.3596 172.219 24.3596C173.603 24.3596 174.299 23.2179 174.299 21.5471Z" fill="#21523B"/>
<path d="M57.1433 32.5273H58.5642C57.5434 33.894 56.7392 36.6732 56.7392 39.1357C56.7392 41.5982 57.5434 44.3774 58.5642 45.7483H57.1433C55.8267 43.9024 55.1309 41.7357 55.1309 39.1357C55.1309 36.5357 55.8267 34.3732 57.1433 32.5273Z" fill="#21523B"/>
<path d="M63.9064 36.8219H62.273V41.2011C62.273 42.0969 62.723 42.2636 63.2272 42.2636C63.4772 42.2636 63.6689 42.2178 63.773 42.197L64.0522 43.4761C63.8688 43.5427 63.5397 43.6386 63.048 43.6428C61.8272 43.6678 60.723 42.9677 60.7272 41.5219V36.8219H59.5605V35.5802H60.7272V33.6719H62.2772V35.5802H63.9105V36.8219H63.9064Z" fill="#21523B"/>
<path d="M67.3312 43.5383H65.7812V32.9258H67.3104V36.8758H67.4104C67.7854 36.0174 68.5313 35.4757 69.7688 35.4757C71.4063 35.4757 72.4937 36.4924 72.4937 38.4757V43.5383H70.9438V38.6633C70.9438 37.4966 70.3063 36.8174 69.2396 36.8174C68.1729 36.8174 67.3312 37.5424 67.3312 38.8132V43.5383Z" fill="#21523B"/>
<path d="M74.1858 41.2896C74.1858 39.4812 75.7316 39.0854 77.2358 38.9104C78.665 38.7438 79.2483 38.7563 79.2483 38.1896V38.1521C79.2483 37.2521 78.7358 36.7271 77.7358 36.7271C76.7358 36.7271 76.115 37.273 75.8858 37.8355L74.4275 37.5021C74.9441 36.0521 76.2733 35.4688 77.7108 35.4688C78.9733 35.4688 80.7983 35.9313 80.7983 38.248V43.5313H79.2858V42.4437H79.2233C78.9275 43.0396 78.1858 43.7063 76.8691 43.7063C75.3566 43.7063 74.1816 42.8479 74.1816 41.2812L74.1858 41.2896ZM79.2524 40.6687V39.6438C79.0274 39.8646 77.8358 40.0021 77.3358 40.0688C76.44 40.1896 75.7025 40.4854 75.7025 41.3104C75.7025 42.0771 76.3358 42.4729 77.2108 42.4729C78.5025 42.4729 79.2524 41.6146 79.2524 40.6687Z" fill="#21523B"/>
<path d="M86.5744 36.8219H84.941V41.2011C84.941 42.0969 85.391 42.2636 85.8952 42.2636C86.1452 42.2636 86.3368 42.2178 86.441 42.197L86.7202 43.4761C86.5369 43.5427 86.2077 43.6386 85.716 43.6428C84.4952 43.6678 83.391 42.9677 83.3952 41.5219V36.8219H82.2285V35.5802H83.3952V33.6719H84.9452V35.5802H86.5785V36.8219H86.5744Z" fill="#21523B"/>
<path d="M91.5273 35.582H93.1273L94.6857 41.4279H94.7649L96.3315 35.582H97.9315L99.4857 41.4029H99.5648L101.115 35.582H102.715L100.377 43.5404H98.7982L97.1815 37.7946H97.0607L95.444 43.5404H93.869L91.5273 35.582Z" fill="#21523B"/>
<path d="M103.574 39.5975C103.574 37.1225 105.041 35.4766 107.283 35.4766C109.524 35.4766 110.991 37.1183 110.991 39.5975C110.991 42.0766 109.524 43.7016 107.283 43.7016C105.041 43.7016 103.574 42.06 103.574 39.5975ZM109.428 39.5933C109.428 38.0683 108.745 36.7766 107.287 36.7766C105.828 36.7766 105.137 38.0724 105.137 39.5933C105.137 41.1141 105.82 42.4016 107.287 42.4016C108.753 42.4016 109.428 41.1224 109.428 39.5933Z" fill="#21523B"/>
<path d="M112.715 35.5818H114.211V36.8443H114.294C114.586 35.9901 115.382 35.4609 116.315 35.4609C116.511 35.4609 116.819 35.4776 116.973 35.4985V36.9818C116.848 36.9443 116.486 36.8902 116.165 36.8902C115.065 36.8902 114.265 37.6401 114.265 38.6818V43.5443H112.715V35.586V35.5818Z" fill="#21523B"/>
<path d="M118.314 32.9258H119.864V38.9466H119.998L123.169 35.5799H125.023L121.798 38.9965L125.239 43.5424H123.339L120.635 39.9466L119.864 40.7174V43.5424H118.314V32.93V32.9258Z" fill="#21523B"/>
<path d="M130.991 37.7724C130.807 37.2391 130.366 36.7057 129.399 36.7057C128.52 36.7057 127.853 37.139 127.861 37.7515C127.857 38.289 128.236 38.5849 129.111 38.7932L130.374 39.085C131.836 39.4225 132.549 40.1183 132.549 41.2391C132.549 42.6808 131.216 43.7016 129.295 43.7016C127.507 43.7016 126.336 42.9099 126.078 41.4974L127.574 41.2683C127.761 42.0516 128.357 42.4516 129.282 42.4516C130.299 42.4516 130.957 41.9683 130.957 41.3516C130.957 40.8558 130.599 40.514 129.832 40.3432L128.486 40.0474C126.995 39.7141 126.311 38.9641 126.311 37.835C126.311 36.4266 127.586 35.4766 129.382 35.4766C131.178 35.4766 132.07 36.285 132.395 37.5225L130.991 37.7724Z" fill="#21523B"/>
<path d="M141.822 36.8219H140.189V41.2011C140.189 42.0969 140.639 42.2636 141.143 42.2636C141.393 42.2636 141.585 42.2178 141.689 42.197L141.968 43.4761C141.785 43.5427 141.456 43.6386 140.964 43.6428C139.743 43.6678 138.639 42.9677 138.643 41.5219V36.8219H137.477V35.5802H138.643V33.6719H140.193V35.5802H141.827V36.8219H141.822Z" fill="#21523B"/>
<path d="M143.09 39.5975C143.09 37.1225 144.557 35.4766 146.798 35.4766C149.04 35.4766 150.506 37.1183 150.506 39.5975C150.506 42.0766 149.04 43.7016 146.798 43.7016C144.557 43.7016 143.09 42.06 143.09 39.5975ZM148.944 39.5933C148.944 38.0683 148.261 36.7766 146.802 36.7766C145.344 36.7766 144.652 38.0724 144.652 39.5933C144.652 41.1141 145.336 42.4016 146.802 42.4016C148.269 42.4016 148.944 41.1224 148.944 39.5933Z" fill="#21523B"/>
<path d="M151.873 39.5975C151.873 37.1225 153.34 35.4766 155.581 35.4766C157.823 35.4766 159.29 37.1183 159.29 39.5975C159.29 42.0766 157.823 43.7016 155.581 43.7016C153.34 43.7016 151.873 42.06 151.873 39.5975ZM157.727 39.5933C157.727 38.0683 157.044 36.7766 155.586 36.7766C154.127 36.7766 153.436 38.0724 153.436 39.5933C153.436 41.1141 154.119 42.4016 155.586 42.4016C157.052 42.4016 157.727 41.1224 157.727 39.5933Z" fill="#21523B"/>
<path d="M161.078 42.6005C161.078 42.0338 161.545 41.5713 162.116 41.5713C162.686 41.5713 163.153 42.038 163.153 42.6005C163.153 43.163 162.682 43.638 162.116 43.638C161.549 43.638 161.078 43.1755 161.078 42.6005ZM162.836 40.488H161.403L161.27 32.9297H162.974L162.841 40.488H162.836Z" fill="#21523B"/>
<path d="M166.265 45.7483H164.844C165.865 44.3816 166.669 41.6024 166.669 39.1399C166.669 36.6774 165.865 33.894 164.844 32.5273H166.265C167.581 34.3732 168.277 36.5399 168.277 39.1399C168.277 41.7399 167.581 43.9024 166.265 45.7483Z" fill="#21523B"/>
</svg>
