<svg width="134" height="12" viewBox="0 0 134 12" fill="none" xmlns="http://www.w3.org/2000/svg">
<g opacity="0.57">
<path d="M0.575012 10.1837C0.991061 10.4045 1.70558 10.4254 2.38392 10.4629C1.86386 10.2504 1.30762 10.1587 0.575012 10.1837Z" fill="#43C554"/>
<path d="M2.39649 10.4668H2.40588C2.3965 10.4668 2.38713 10.4668 2.38245 10.4668C2.38713 10.4668 2.39181 10.4668 2.39649 10.471V10.4668Z" fill="#43C554"/>
<path d="M134 0.429688C133.833 0.433854 133.638 0.438033 133.444 0.4422C133.629 0.450533 133.819 0.450521 134 0.429688Z" fill="#43C554"/>
<path d="M33.9813 11.0327L34.0816 10.6699C35.6333 10.6616 34.5349 11.0863 35.9689 10.9956C36.5312 10.4802 38.3533 11.0451 38.8458 10.7729C38.8327 10.8142 39.5388 10.8307 39.4909 10.9915C39.7045 10.7111 40.2144 10.9256 40.6547 10.8555C40.8159 10.7771 40.537 10.773 40.415 10.6864L41.4305 10.5874C41.8272 10.6781 41.9231 10.843 41.4959 10.8719C44.1461 10.9708 56.8782 11.2265 59.7332 11.0863C59.3671 10.876 58.4822 11.0203 58.151 10.6864C58.905 10.5008 59.2625 10.7523 59.5938 10.5544C59.8858 11.0492 61.2545 10.6699 61.8255 11.1729L62.0434 10.8925L62.4183 11.0616C65.7397 10.7689 63.1767 10.9172 66.1189 10.9832C67.8232 10.9379 68.634 10.5503 69.5798 10.6946C69.4403 10.6946 69.0611 10.5215 69.5057 10.4473C69.5798 10.6947 70.6826 10.27 70.8961 10.5174C71.3277 10.4844 72.7268 10.5173 72.2561 10.1793C72.4958 10.3483 73.7425 10.4142 73.0015 10.5585C73.4243 10.5668 73.8296 10.6163 74.1348 10.5421L73.5943 10.4473C75.0196 10.3978 75.7954 10.6575 76.7195 10.3524L76.1921 10.2205C77.0421 10.1999 77.7569 10.171 78.0882 10.505L77.2164 10.6081C78.6287 10.5998 79.4787 10.5751 80.6555 10.3978L80.2371 10.3895C81.7365 10.0556 89.578 9.77521 90.9554 9.35879L90.3191 9.10322L91.5046 8.8847C91.3652 8.8847 90.9337 9.72159 90.816 9.63913C93.3615 9.61439 106.599 9.40416 108.949 9.57732C109.899 9.7175 109.119 9.98553 109.11 10.0268C110.265 9.92781 109.607 9.7546 110.588 9.77522C110.853 9.82057 110.531 9.97727 110.383 10.0144C110.814 9.98552 111.211 10.072 111.246 9.95248C110.71 9.85765 110.936 9.54018 110.71 9.32991L111.974 9.35467L111.917 9.55669C112.2 9.56081 112.632 9.00418 113.87 9.11138C115.962 9.19796 118.233 9.1238 120.338 9.16915C120.308 9.28872 119.863 9.36289 119.423 9.43298C119.706 9.4371 120.133 9.4083 120.395 9.49488C119.885 9.28049 121.275 9.35055 120.879 9.25985C122.417 8.76509 124.414 9.21452 125.774 8.87644C125.891 8.43116 128.681 1.24485 128.681 0.717109C129.104 0.725355 129.522 0.733561 129.653 0.778913C129.544 0.655225 128.716 0.597495 128.271 0.667585L128.197 0.952145C127.182 1.0511 127.957 0.78306 126.968 0.803675C126.916 0.57279 127.827 0.523318 128.629 0.498581C127.905 0.473843 127.186 0.304758 126.89 0.556258C126.21 0.46143 126.964 0.271802 126.149 0.172852C125.564 0.242942 124.802 0.46976 124.13 0.333703L124.143 0.292433C122.518 0.0533021 121.655 0.647023 120.164 0.412015L120.325 0.333703C119.798 0.201769 118.765 0.379063 117.814 0.238883C118.085 0.284236 118.32 0.453212 117.749 0.482073C116.659 0.33777 115.914 0.482101 115.116 0.304814L114.354 0.531596C110.557 0.490367 95.5627 0.824346 91.7488 0.861453L91.8969 0.82431C86.0866 0.943875 74.1566 0.931519 68.1545 1.24899C67.2261 1.02635 65.9445 1.07992 64.9769 1.01808C65.5174 1.10878 65.3299 1.26961 64.9115 1.26137C61.9606 1.23663 64.711 1.41386 61.7252 1.51281C58.2861 1.72308 45.1268 1.49632 42.0756 1.30666C40.4367 1.6365 38.3881 1.38911 36.784 1.59938L36.9453 1.52106C35.2192 1.64475 25.4555 1.34795 23.4504 1.46751L23.7207 1.51281C21.9728 1.71896 22.2125 1.36031 20.8308 1.24899C21.0138 1.61593 19.5144 1.83031 18.9434 1.85505L18.9652 1.77261C18.1022 1.83445 16.1538 2.15597 14.7284 2.20956L14.7851 2.00754C13.5995 2.22606 11.3678 2.1354 10.5135 2.16014C8.56507 2.07768 5.55313 1.72718 2.94656 1.99929L1.2597 1.42624L1.01124 1.48392C1.01124 1.48392 -1.69558 8.43529 1.74788 9.91543L1.69122 10.1175L2.37119 10.0927C3.18629 10.1916 3.5655 9.9566 3.50884 10.1586L2.38862 10.134C3.20808 10.1917 2.63709 10.2989 2.32325 10.4143C2.6676 10.4349 2.99887 10.4555 3.27347 10.5174C3.43475 10.439 3.15578 10.4349 3.02502 10.3895C3.46526 10.3194 4.07986 10.1298 4.62036 10.2205C5.46161 10.237 4.67266 10.5462 5.65339 10.5668C10.8273 10.7193 15.8399 10.9502 21.0705 10.9008C21.1882 10.9832 21.0487 10.9832 20.8962 11.0204C22.4697 10.9338 23.8732 10.9626 25.3073 10.8719C25.7039 10.9626 25.8129 11.0864 25.9306 11.1688C25.6952 10.9998 33.8506 10.9791 33.9813 11.0245V11.0327Z" fill="#43C554"/>
</g>
</svg>
